<svg id="Layer_1" data-name="Layer 1" xmlns="http://www.w3.org/2000/svg" viewBox="0 0 572.95 397.49"><defs><style>.cls-1{fill:#040206;}.cls-2{fill:#c8a1cb;}.cls-3{fill:#d1b1d3;}.cls-4{fill:#662d8f;}.cls-5{fill:#652c8e;}.cls-6{fill:#f4f2f4;}.cls-7{fill:#c7a0c9;}.cls-8{fill:#d1b0d3;}.cls-9{fill:#de68a3;}.cls-10{fill:#e84a9a;}.cls-11{fill:#d2b2d5;}.cls-12{fill:#e74a9a;}.cls-13{fill:#e367a6;}.cls-14{fill:#6d3193;}.cls-15{fill:#703193;}.cls-16{fill:#e067a7;}.cls-17{fill:#d0aed2;}.cls-18{fill:#743a96;}.cls-19{fill:#80449a;}.cls-20{fill:#e6499a;}.cls-21{fill:#6b2e91;}.cls-22{fill:#c9a1cb;}.cls-23{fill:#e74e9c;}.cls-24{fill:#e14a9a;}.cls-25{fill:#e16aa8;}.cls-26{fill:#e36eaa;}.cls-27{fill:#733092;}.cls-28{fill:#c63e96;}.cls-29{fill:#7f2d91;}.cls-30{fill:#c69cc8;}</style></defs><path class="cls-1" d="M305.15,442.9l-.53.68-.11.19c-.25.4-.49.8-.74,1.19l0,.05a12.42,12.42,0,0,0-1,1q-34.12,43-68.23,85.95a10.26,10.26,0,0,0-.91,1.65c.38.3.54.52.73.57a240.23,240.23,0,0,1,51,19.56c6.88,3.54,13.74,1.12,17.66-5.49.38-.64,1.36-.93,2.07-1.38v0c.27.65.53,1.29.79,1.94l.08.16.54.8c4.36,6.1,10.7,7.45,18.15,3.37,21.14-11.59,44-18.35,67.46-22.87,34.7-6.68,69.78-8.23,105-6.47,8.6.42,17.19,1.15,25.8,1.45a12.17,12.17,0,0,0,12.43-10.47,37.39,37.39,0,0,0,.33-5.9q0-128,0-256.09c0-.81,0-1.63,0-2.44-.27-8.3-4.75-13.31-13-14-11.15-.89-22.31-1.68-33.48-2.15-10-.43-20-.35-30-.49q.36-6.21.74-12.4c-.8-9-1.54-18-2.53-27-.07-.68-2.14-1.86-2.92-1.62-8.36,2.56-16.64,5.36-25,8.1-4.33,2.23-8.82,4.2-13,6.72-16,9.72-29.22,22.46-40.68,37.13A205.89,205.89,0,0,0,318,267.41c-3.85,2.27-7.24,5.32-10.83,8l-.62.83,0,.05-.77,1.33v0l-.63,1.43,0,0c-.64-.18-1.48-.16-1.87-.56-1.91-2-3.39-4.48-5.56-6-12.09-8.7-25.53-14.83-39.44-20-22.41-8.32-45.68-12.94-69.37-15.64A475.52,475.52,0,0,0,86,236.38c-9,.93-13.1,5.58-13.1,14.46q0,130,0,259.92a20.45,20.45,0,0,0,.43,4.83c1.72,7,7.31,10.32,16.34,9.47a481.67,481.67,0,0,1,92.15.21c-1.74,2-3.55,4-5.22,6.14-2.48,3.14-5.56,3.78-9.53,3.45a437.42,437.42,0,0,0-77.53.8c-8.14.76-15.24-1.28-21-7.27-4.91-5.12-6.28-11.37-6.27-18.26q.09-120.6,0-241.18a19.21,19.21,0,0,0,0-3.13,2.93,2.93,0,0,0-1-2c-6.51-3.38-12.93-7-19.65-9.87-12-5.18-26,6.79-23.5,20.47a18.28,18.28,0,0,0,6.29,11c8.56,7.35,12.41,16.5,12.38,27.93q-.32,103-.05,206a33.12,33.12,0,0,1-11.93,26.35c-6.83,6-8.8,14.27-5.37,22a19.11,19.11,0,0,0,19.65,11c8.09-.94,14.64-7.37,16-16.12.36-2.32,1.32-3.07,3.48-3.4,9.21-1.43,18.34-3.45,27.59-4.47,22.23-2.45,44.52-4.47,66.78-6.64a19.07,19.07,0,0,1,2.82.12c-10.28,8.73-20.85,16.49-33.26,21.28a39.05,39.05,0,0,1-8.42,2.24c-9.51,1.31-14.53-2.76-15.42-12.18,0-.2-.22-.38-.56-1-2.68.25-5.58.35-8.39.87-.79.14-1.74,1.45-1.93,2.36-2,9.62,1.76,18.26,10.29,23.19A36.85,36.85,0,0,0,122,589.71,96.8,96.8,0,0,0,158,577a245.92,245.92,0,0,0,38.5-27.7,8.75,8.75,0,0,1,6.9-2.47c15.67,1.12,31.35,2.13,46.31,3.14C237,545,222.86,542.41,208.52,539.2a21.94,21.94,0,0,1,1.39-2C224.23,521.5,238.84,506,252.83,490c30.15-34.58,58.59-70.51,84.31-108.51C345,369.82,352.51,357.9,360,346c1.52-2.41,2.82-2.81,4.85-1,.91.84,1.75,1.76,2.62,2.65-1.83,3.22-3.59,6.48-5.49,9.66-4.69,7.84-9.44,15.65-14.16,23.47l0,0-.57.7-.08.12-.77,1.26,0,0-.55.73-.09.15L345,385h0l-.52.75Q331.26,405.2,318,424.61c-4,5.83-8.13,11.58-12.2,17.36l-.64.91Zm53.51,106.87c1.2.6,1.62,1,1.95,1,17.6-3.26,35.42-3.79,53.24-3.92a674.26,674.26,0,0,1,87.9,5.27c16.07,2,32,4.71,48.06,7.07,2.06.3,3.21,1,3.56,3.41,1.28,8.66,7.69,15.17,15.53,16.17,8.38,1.06,16.53-3.25,19.93-10.55A18.53,18.53,0,0,0,584,546c-8.48-7.48-12.36-16.58-12.33-28q.28-102.27,0-204.56c0-11.32,3.77-20.25,12-27.74,7.83-7.09,9.13-17.16,3.59-25.12-5.64-8.12-14.2-10-24.15-5.17-4.6,2.25-8.93,5.07-13.6,7.15-2.68,1.19-3.48,2.65-3.47,5.48.11,24.51.07,49,.06,73.53q0,84.35,0,168.67c0,5.23-.81,10.17-3.7,14.64-5.88,9.07-14.53,11.76-24.81,10.74a464.4,464.4,0,0,0-74.4-1.14,351.4,351.4,0,0,0-67,10.11C370.62,546.06,365,547.89,358.66,549.77Z" transform="translate(-17.74 -192.59)"/><path class="cls-2" d="M181.8,525.27a481.67,481.67,0,0,0-92.15-.21c-9,.85-14.62-2.42-16.34-9.47a20.45,20.45,0,0,1-.43-4.83q0-130,0-259.92c0-8.88,4.09-13.53,13.1-14.46a475.52,475.52,0,0,1,102.94.48c23.69,2.7,47,7.32,69.37,15.64,13.91,5.16,27.35,11.29,39.44,20,2.17,1.56,3.65,4.06,5.56,6,.39.4,1.23.38,1.87.55-.46,2.7-1.3,5.38-1.31,8.08-.1,23.46-.06,46.92,0,70.39-1.75.89-3.49,1.79-5.34,2.75.09,1.88.19,4.07.27,5.75l5.15,2.57c0,5.67-.14,11.33,0,17,0,1,1,2,1.54,3l-33.7,39.9a6.91,6.91,0,0,0-3.91-6.47c-3.77-2-7.48-4.32-11.47-5.83-8-3-16.14-5.6-24.23-8.37.48-.48.92-1,1.44-1.46,8.89-7.52,16.2-16.1,19-27.76a7.85,7.85,0,0,1,1.42-2.15c2.09,4.07,8.8,5.84,13.06,3.46,5.33-3,7.44-9.42,4.16-14.19-3.56-5.19-9.17-7.54-15-9.29l-1.5-7.21q2.24-2.65,4.48-5.3c6-7.08,11.71-14.41,14.8-23.34,2.59-7.5,1.43-11.37-4.48-15.69-1-1.31-1.61-3.25-2.9-3.82-9.54-4.23-19-8.75-28.88-12.14-25-8.59-51.17-11.37-77.43-12.52-14.27-.62-28.61.26-42.91.57-6.52.14-10.79,5.11-10.17,11.52.56,5.7,6.79,10.22,12.69,9.19a19.28,19.28,0,0,1,3.09-.49c23.25-.31,46.5-.24,69.61,2.87,1.69.22,3.26,1.26,4.88,1.92-2,.23-3.92.5-5.89.69-13.48,1.28-25.44,6.29-34.73,16.07-5.13,5.39-8.87,12.08-13.24,18.19a14.91,14.91,0,0,0-3.35-.69c-7.88.17-15.79.05-23.61.81-5.57.54-10,4.26-9.49,11.45a10.1,10.1,0,0,0,10.25,9.28c7.06-.11,14.12-.45,21.17-.69q.7,7.88,1.39,15.77a26.3,26.3,0,0,0-3.47,3.36c-4.92,6.84-9.72,13.76-14.57,20.65-1.27,0-2.55-.08-3.82,0-6.1.47-10.64,4.3-10.92,9.16-.54,9,8,15,16.63,11.44.43-.18.64-.89,1-1.35l8.32,1.53,2.06,0,5.55-.49,1.43-.26,4.92-.66.68,1,.65-1.33,1.46-.35c0,2.56,1.9,2.08,3.48,2.17,7.74.44,15.49,1,23.24,1.31,3.72.16,7.47,0,11.2-.05l1.29.16c.45.43.87,1.18,1.37,1.25,2.79.36,5.61.56,8.42.81,2.86.49,5.73.9,8.58,1.47,16.94,3.38,33.46,8,48.65,16.53,1.45.82,3.26,1,4.91,1.49L235.2,470.06c-1.12-.91-2.11-2.24-3.39-2.67-5.14-1.68-10.38-3.09-15.58-4.6,1.54-2.28.16-3.45-1.76-4.22a5.58,5.58,0,0,1-3.78-5.28c-.08-1.11-.94-2.16-1.45-3.24-1.08.55-2.15,1.11-3.24,1.64a22.24,22.24,0,0,1-4.42,2,28.25,28.25,0,0,1-5.22.25l1.26,4.85c.06.22.1.45.15.68-2,0-4,.12-5.93,0-10.05-.83-20.09-1.83-30.15-2.57-4.06-.29-8.16-.08-12.24-.08-10.33,0-20.65,0-31,.12a13.26,13.26,0,0,0-3.74.81,10.75,10.75,0,0,0-7.49,12.55c.69,4,5.56,7.52,10.48,7.46,5.81-.08,11.63-.55,17.43-.43,11.62.23,23.25.47,34.84,1.22,9.6.63,19.17,1.8,28.71,3.08,7.58,1,15.1,2.55,22.65,3.86a5.18,5.18,0,0,1-.54.88q-18.15,18.72-36.35,37.39A10.83,10.83,0,0,1,181.8,525.27Z" transform="translate(-17.74 -192.59)"/><path class="cls-3" d="M305.81,442c4.07-5.78,8.2-11.53,12.2-17.36q13.29-19.38,26.49-38.84L345,385h0l.75-1.23.09-.15c.18-.25.37-.49.55-.73l0,0,.77-1.26.08-.12.57-.7,0,0a20.33,20.33,0,0,0,3.6-1.22c13.76-7.9,28.65-12.73,44.12-15.81,7.83-1.55,15.78-2.57,23.68-3.83-.32,1.5-.65,3-1,4.5l.62.53,6.45-5.82c13.55-.67,27.09-1.42,40.64-2,5.46-.22,10.94-.11,16.41,0,2.77.05,5.55.7,8.31.59,5.91-.22,10.26-4.2,10.38-9.12.17-6.6-3.34-11.14-9.28-11.66-4.73-.41-9.49-.75-14.24-.72-13.83.11-27.65.41-41.48.63-.06-5.63.34-11.31-.3-16.88s-2.07-11.13-6.1-15.53l5.47-7.43a15.83,15.83,0,0,0,3.63.78c3.35-.09,6.7-.59,10.06-.62,11.53-.08,23.05,0,34.58,0,1.28,0,2.56.25,3.83.16,2.71-.19,5.59-.06,8.09-.93,4.51-1.56,6.52-6.25,5.7-11.79-.47-3.17-4.68-7.18-8.28-7.58a104.55,104.55,0,0,0-10.75-.75c-11.64-.11-23.29-.08-34.93-.11.35-1.09.63-2.21,1.07-3.27,5.27-12.65,9.52-25.58,11-39.28,10,.14,20,.06,30,.49,11.17.47,22.33,1.26,33.48,2.15,8.27.67,12.75,5.68,13,14,0,.81,0,1.63,0,2.44q0,128,0,256.09a37.39,37.39,0,0,1-.33,5.9A12.17,12.17,0,0,1,523,525.18c-8.61-.3-17.2-1-25.8-1.45-35.25-1.76-70.33-.21-105,6.47-23.5,4.52-46.32,11.28-67.46,22.87-7.45,4.08-13.79,2.73-18.15-3.37l-.54-.8-.08-.16-.79-1.94v0c-.45-6.31-1.24-12.62-1.28-18.93-.15-27.63-.08-55.26-.1-82.89l0-.05.74-1.19.11-.19c.17-.23.35-.45.53-.68l0,0ZM389,425.55c-.36,1.34-.73,2.68-1.08,4-2.79,10.43-3.05,20.78,1.05,31l.85,3.25c-8.91,2.61-18,4.72-26.67,8a170.37,170.37,0,0,0-22.86,10.92c-5.68,3.16-6.17,11.1-1.61,15.58,3.63,3.56,7.8,4.1,12.83,1.7,5.33-2.55,10.6-5.25,16-7.6,11.47-5,23.64-7.57,35.87-9.86,2.1,1.42,4.16,2.92,6.33,4.24,12.32,7.58,25.51,9.94,39.64,6.33,1.57-.37,3.19-.62,4.72-1.13,8.49-2.8,15.38-8.06,21.63-14.26,5.1,0,10.2.06,15.3.06s9.65-3.85,10-8.2c.53-6.26-2.5-10.75-8-11.94-2-.44-4-1-6-1.49.11-.68.23-1.36.35-2,.12-.48.25-1,.37-1.44.14-1.15.27-2.29.41-3.44l.27-2.14v-6.23l-.36-2.84c-.1-.92-.21-1.84-.31-2.75l-.37-1.44-.5-.67-5-14.34c3.16-.33,6.31-.8,9.49-1,5.58-.3,9.2-4.33,9.77-9.77s-5.13-11-11.34-11.17c-9.53-.22-19.05-.5-28.58-.66a16.72,16.72,0,0,0-3.63.74c-1.9-.55-3.8-1.13-5.71-1.64-11.93-3.22-23.67-3.27-35.07,2.15l-8.08,3.7a32.06,32.06,0,0,0-5.72.1c-16.69,3.19-33.34,6.68-48.86,13.89a104.32,104.32,0,0,0-15.42,8.72c-3.47,2.4-3.89,7.75-1.92,11.74a9.68,9.68,0,0,0,10.41,5.22,26.58,26.58,0,0,0,6.8-2.5A135.46,135.46,0,0,1,389,425.55Zm-53.79,33.17c2.53.07,3.51-1.16,2.44-3-1.78-3.12-1.51-5.72.5-8.64,1.42-2.05.11-3.65-2.16-3.1-3.51.86-5.69-.37-7.76-3-1.46-1.87-3.25-1.58-3.63.95-.5,3.33-2,5.42-5.3,6.52-2.33.78-2.45,2.65-.22,3.72a7.06,7.06,0,0,1,4.47,7.08c0,2.32,1.68,3.25,3.5,1.44C329.58,458.12,332.15,457,335.24,458.72Z" transform="translate(-17.74 -192.59)"/><path class="cls-4" d="M235.2,470.06,261,440.78l.78-.8,1.51-2,8.44-9.51,33.7-39.9a5.09,5.09,0,0,0,.79-.67q20.64-25.92,41.27-51.86a7.11,7.11,0,0,0,.65-1.69c-2.6-1.75-4.95-3.71-3.45-7.15,1.12-2.59,3.49-2.76,5.95-2.4L377.12,342l1.54,4c-2.27,4.71-4.15,5.26-8.66,2.63a16,16,0,0,0-2.51-.94c-.87-.89-1.71-1.81-2.62-2.65-2-1.85-3.33-1.45-4.85,1-7.51,11.9-15,23.82-22.88,35.47C311.42,419.47,283,455.4,252.83,490c-14,16-28.6,31.52-42.92,47.27a21.94,21.94,0,0,0-1.39,2c14.34,3.21,28.52,5.8,41.17,10.72-15-1-30.64-2-46.31-3.14a8.75,8.75,0,0,0-6.9,2.47A245.92,245.92,0,0,1,158,577a96.8,96.8,0,0,1-36,12.76A36.85,36.85,0,0,1,98,585.05c-8.53-4.93-12.32-13.57-10.29-23.19.19-.91,1.14-2.22,1.93-2.36,2.81-.52,5.71-.62,8.39-.87.34.57.54.75.56,1,.89,9.42,5.91,13.49,15.42,12.18a39.05,39.05,0,0,0,8.42-2.24c12.41-4.79,23-12.55,33.26-21.28a19.07,19.07,0,0,0-2.82-.12c-22.26,2.17-44.55,4.19-66.78,6.64-9.25,1-18.38,3-27.59,4.47-2.16.33-3.12,1.08-3.48,3.4-1.38,8.75-7.93,15.18-16,16.12a19.11,19.11,0,0,1-19.65-11c-3.43-7.76-1.46-16.07,5.37-22a33.12,33.12,0,0,0,11.93-26.35q-.16-103,.05-206c0-11.43-3.82-20.58-12.38-27.93a18.28,18.28,0,0,1-6.29-11C15.58,260.77,29.53,248.8,41.57,254c6.72,2.89,13.14,6.49,19.65,9.87a2.93,2.93,0,0,1,1,2,19.21,19.21,0,0,1,0,3.13q0,120.58,0,241.18c0,6.89,1.36,13.14,6.27,18.26,5.75,6,12.85,8,21,7.27a437.42,437.42,0,0,1,77.53-.8c4,.33,7-.31,9.53-3.45,1.67-2.1,3.48-4.1,5.22-6.14a10.83,10.83,0,0,0,2.66-1.52q18.22-18.64,36.35-37.39a5.18,5.18,0,0,0,.54-.88Z" transform="translate(-17.74 -192.59)"/><path class="cls-5" d="M358.66,549.77c6.37-1.88,12-3.71,17.64-5.18a351.4,351.4,0,0,1,67-10.11,464.4,464.4,0,0,1,74.4,1.14c10.28,1,18.93-1.67,24.81-10.74,2.89-4.47,3.7-9.41,3.7-14.64q-.06-84.33,0-168.67c0-24.51.05-49-.06-73.53,0-2.83.79-4.29,3.47-5.48,4.67-2.08,9-4.9,13.6-7.15,10-4.85,18.51-2.95,24.15,5.17,5.54,8,4.24,18-3.59,25.12-8.27,7.49-12.08,16.42-12,27.74q.36,102.29,0,204.56c0,11.41,3.85,20.51,12.33,28a18.53,18.53,0,0,1,4.81,22.18c-3.4,7.3-11.55,11.61-19.93,10.55-7.84-1-14.25-7.51-15.53-16.17-.35-2.38-1.5-3.11-3.56-3.41-16-2.36-32-5.09-48.06-7.07a674.26,674.26,0,0,0-87.9-5.27c-17.82.13-35.64.66-53.24,3.92C360.28,550.78,359.86,550.37,358.66,549.77Z" transform="translate(-17.74 -192.59)"/><path class="cls-6" d="M435.15,297.07l-5.47,7.44-20.68,24-5.32,4.38-25.32-16.72c1.09-1.62,2.06-3.33,3.28-4.85,6.38-8,12.89-15.82,19.19-23.84a7.94,7.94,0,0,0,1.69-5,5.05,5.05,0,0,0-4.72-4.81c-2.87-.34-4.87.93-6.21,3.5q-7.47,14.32-15.09,28.59a21.07,21.07,0,0,1-2.79,3.37l-25.11-16.3c.48-2.11.95-4.22,1.43-6.33q7.1-14.21,14.18-28.42a2.8,2.8,0,0,0,0-1l11.62-16.5c11.46-14.67,24.7-27.41,40.68-37.13,4.15-2.52,8.64-4.49,13-6.72.69.06,1.38.14,2.07.15a29.78,29.78,0,0,1,28.33,20.39q-.37,6.19-.74,12.4c-1.51,13.7-5.76,26.63-11,39.28-.44,1.06-.72,2.18-1.07,3.28Zm-41.22-48a25.36,25.36,0,0,0,25.73,25.57c13.59,0,25-11.44,25.21-25.16A25.5,25.5,0,0,0,419.68,224,25.16,25.16,0,0,0,393.93,249.07Z" transform="translate(-17.74 -192.59)"/><path class="cls-7" d="M303.74,445c0,27.63-.05,55.26.1,82.89,0,6.31.83,12.62,1.28,18.93-.71.45-1.69.74-2.07,1.38-3.92,6.61-10.78,9-17.66,5.49a240.23,240.23,0,0,0-51-19.56c-.19,0-.35-.27-.73-.57a10.26,10.26,0,0,1,.91-1.65q34.09-43,68.23-85.95A12.42,12.42,0,0,1,303.74,445Z" transform="translate(-17.74 -192.59)"/><path class="cls-8" d="M350,290.5c-.48,2.11-.95,4.22-1.43,6.33L347,298.58c-2.14,1.14-4.37,2.15-6.41,3.47-4.51,2.91-6.25,9.16-3.86,13.38a11,11,0,0,0,14.54,4.36,42.83,42.83,0,0,1,4.49-1.63l-5.17,6.69c-2.46-.36-4.83-.19-5.95,2.4-1.5,3.44.85,5.4,3.45,7.15a7.11,7.11,0,0,1-.65,1.69Q326.85,362,306.19,388a5.09,5.09,0,0,1-.79.67c-.54-1-1.52-2-1.54-3-.13-5.66,0-11.32,0-17l4.88-5.58-5-5.5c0-23.47-.05-46.93,0-70.39,0-2.7.85-5.38,1.31-8.08l0,0,.63-1.43v0l.77-1.33,0-.05.62-.83c3.59-2.7,7-5.75,10.83-8a205.89,205.89,0,0,1,57.83-22.84l-11.61,16.49c-2.45,0-4.9-.09-7.34,0-19,.55-36.55,13.22-42.9,31-.39,1.08-.63,2.22-1.22,4.35C324.93,287.8,336.79,284.14,350,290.5Z" transform="translate(-17.74 -192.59)"/><path class="cls-7" d="M367.49,347.69a16,16,0,0,1,2.51.94c4.51,2.63,6.39,2.08,8.66-2.63a10.79,10.79,0,0,0,1.4-.05c11.17-2.08,22.35-4.13,33.5-6.34.86-.17,1.52-1.41,2.27-2.16,4.51,7,4.84,14.62,3.41,22.51-7.9,1.26-15.85,2.28-23.68,3.83-15.47,3.08-30.36,7.91-44.12,15.81a20.33,20.33,0,0,1-3.6,1.22c4.72-7.82,9.47-15.63,14.16-23.47C363.9,354.17,365.66,350.91,367.49,347.69Z" transform="translate(-17.74 -192.59)"/><path class="cls-9" d="M459.92,221.26a29.78,29.78,0,0,0-28.33-20.39c-.69,0-1.38-.09-2.07-.15,8.31-2.74,16.59-5.54,25-8.1.78-.24,2.85.94,2.92,1.62C458.38,203.23,459.12,212.25,459.92,221.26Z" transform="translate(-17.74 -192.59)"/><path class="cls-7" d="M305.11,546.8l.79,1.94C305.64,548.09,305.38,547.45,305.11,546.8Z" transform="translate(-17.74 -192.59)"/><path class="cls-2" d="M305.8,277.62l-.63,1.43Z" transform="translate(-17.74 -192.59)"/><path class="cls-2" d="M306.56,276.31l-.77,1.33Z" transform="translate(-17.74 -192.59)"/><path class="cls-7" d="M347.17,381.66l-.77,1.26Z" transform="translate(-17.74 -192.59)"/><path class="cls-7" d="M345.78,383.78,345,385Z" transform="translate(-17.74 -192.59)"/><path class="cls-7" d="M304.51,443.77c-.25.4-.49.8-.74,1.19C304,444.57,304.26,444.17,304.51,443.77Z" transform="translate(-17.74 -192.59)"/><path class="cls-2" d="M307.21,275.43c-.21.27-.41.55-.62.83C306.8,276,307,275.7,307.21,275.43Z" transform="translate(-17.74 -192.59)"/><path class="cls-7" d="M347.82,380.84l-.57.7Z" transform="translate(-17.74 -192.59)"/><path class="cls-7" d="M346.42,382.9c-.18.24-.37.48-.55.73C346.05,383.38,346.24,383.14,346.42,382.9Z" transform="translate(-17.74 -192.59)"/><path class="cls-7" d="M305.81,442l-.64.91Z" transform="translate(-17.74 -192.59)"/><path class="cls-7" d="M305.15,442.9c-.18.23-.36.45-.53.68Z" transform="translate(-17.74 -192.59)"/><path class="cls-7" d="M345,385l-.52.75Z" transform="translate(-17.74 -192.59)"/><path class="cls-7" d="M306,548.9l.54.8Z" transform="translate(-17.74 -192.59)"/><path class="cls-10" d="M143.6,337c4.37-6.11,8.11-12.8,13.24-18.19,9.29-9.78,21.25-14.79,34.73-16.07,2-.19,3.93-.46,5.89-.69l3.44.07,14.73,3.46c-.77,1.12-1.46,2.31-2.33,3.34-3,3.53-6.06,7-9.11,10.49-2.34,2.66-2.81,5.85-1.07,8.68,2,3.22,5.3,1.95,8.23,1.12A5.61,5.61,0,0,1,212,329c2.85-.35,5.7-1,8.54-.94,3.21.09,5.48,3.11,5.6,6.37.17,4.82-3,7.48-6.28,10.22-8,6.73-14.91,14.33-19.59,23.72-3.29,6.6-1.8,10,5,12.58l-15.49,9.3c-.3-5-2.53-6.47-7-4.47-1.16.52-2.15,1.62-3.34,1.84-2.05.37-4.81,1.09-6.13.12s-1.74-4.09-1.15-5.79a60.22,60.22,0,0,1,5.37-10.82c3-5.05,6.66-9.76,9.36-15,.88-1.68.43-5.47-.84-6.45s-4.8-.54-6.6.53c-6.3,3.72-12.19,8.12-18.44,11.93-1.36.83-3.56.31-5.37.41,0-1.84-.41-3.75,0-5.5.32-1.52,1.7-2.78,2.24-4.28,1.27-3.53-.67-6.1-4.29-5.21-2.84.7-5.47,2.41-8.09,3.86a63.28,63.28,0,0,0-5.31,3.64c-.1-2.2-.17-3.58-.23-5Q141.8,343.53,143.6,337Z" transform="translate(-17.74 -192.59)"/><path class="cls-11" d="M200.9,302.09l-3.44-.07c-1.62-.66-3.19-1.7-4.88-1.92-23.11-3.11-46.36-3.18-69.61-2.87a19.28,19.28,0,0,0-3.09.49c-5.9,1-12.13-3.49-12.69-9.19-.62-6.41,3.65-11.38,10.17-11.52,14.3-.31,28.64-1.19,42.91-.57,26.26,1.15,52.39,3.93,77.43,12.52,9.86,3.39,19.34,7.91,28.88,12.14,1.29.57,1.95,2.51,2.9,3.82a29.16,29.16,0,0,0-16.13-.78c-6.54,1.46-13,3.32-19.5,5-2.72-.82-5.41-1.78-8.18-2.4-2.61-.59-5.31-.81-8-1.19l-1.34-.3A25.36,25.36,0,0,0,200.9,302.09Z" transform="translate(-17.74 -192.59)"/><path class="cls-11" d="M235.2,470.06l-13.85,15.42c-7.55-1.31-15.07-2.85-22.65-3.86-9.54-1.28-19.11-2.45-28.71-3.08-11.59-.75-23.22-1-34.84-1.22-5.8-.12-11.62.35-17.43.43-4.92.06-9.79-3.5-10.48-7.46a10.75,10.75,0,0,1,7.49-12.55,13.26,13.26,0,0,1,3.74-.81c10.33-.1,20.65-.1,31-.12,4.08,0,8.18-.21,12.24.08,10.06.74,20.1,1.74,30.15,2.57,2,.16,4,0,5.93,0a26,26,0,0,1-1.1,4.44c-1.35,3.14-.7,4.5,2.48,3.86s5,.38,7,2.55,3.66,1.71,3.93-1.15c.37-4,2.71-5.61,6.16-6.41,5.2,1.51,10.44,2.92,15.58,4.6C233.09,467.82,234.08,469.15,235.2,470.06Z" transform="translate(-17.74 -192.59)"/><path class="cls-12" d="M254,376.48a7.85,7.85,0,0,0-1.42,2.15c-2.84,11.66-10.15,20.24-19,27.76-.52.45-1,1-1.44,1.46-7.74,4.74-15.67,9-24.83,10.4l-2.09.38-4.93.53-8.4,0a5.31,5.31,0,0,1-.68-.1c-4.7-5.46-7.07-11.54-5-18.79q4-2.52,8-5.06l2.21-1.8h0l16.52-10,2.2-1.42,1.29-.84,4.7-3.46h0l2.77-2.09h0l1.47-1,1.49-1.17c.68-.52,1.36-1,2-1.57l1.49-1.15,1.27-1,3.57-3.11,2.06-1.69,3.42-2.24c1.07,1.87,3,3.73,3,5.61,0,4.13,1.15,5.77,5.34,5.61,1.68-.07,3.37,0,5.06,0Z" transform="translate(-17.74 -192.59)"/><path class="cls-13" d="M140,350.08c.06,1.38.13,2.76.23,5a63.28,63.28,0,0,1,5.31-3.64c2.62-1.45,5.25-3.16,8.09-3.86,3.62-.89,5.56,1.68,4.29,5.21-.54,1.5-1.92,2.76-2.24,4.28-.38,1.75,0,3.66,0,5.5,1.81-.1,4,.42,5.37-.41,6.25-3.81,12.14-8.21,18.44-11.93,1.8-1.07,5.27-1.55,6.6-.53s1.72,4.77.84,6.45c-2.7,5.21-6.34,9.92-9.36,15a60.22,60.22,0,0,0-5.37,10.82c-.59,1.7-.07,4.9,1.15,5.79s4.08.25,6.13-.12c1.19-.22,2.18-1.32,3.34-1.84,4.46-2,6.69-.55,7,4.46-6,2.94-11.93,6.17-18.12,8.72-4.66,1.93-9.68,3-14.54,4.45q-3.33-3.58-6.67-7.15l-7.6-13.27-.78-3.43-1.42-2.88L140,372.9l-1.38-15.77Q139.27,353.6,140,350.08Z" transform="translate(-17.74 -192.59)"/><path class="cls-11" d="M200.24,419.15l4.93-.52,2.09-.38c9.16-1.37,17.09-5.66,24.83-10.4,8.09,2.77,16.25,5.34,24.23,8.37,4,1.51,7.7,3.79,11.47,5.83a6.91,6.91,0,0,1,3.91,6.47L263.26,438l-1.51,2-.78.8c-1.65-.48-3.46-.67-4.91-1.49-15.19-8.56-31.71-13.15-48.65-16.53-2.85-.57-5.72-1-8.58-1.47V419.9Z" transform="translate(-17.74 -192.59)"/><path class="cls-11" d="M140,350.08q-.71,3.53-1.4,7.05c-7.06.24-14.12.58-21.18.69a10.1,10.1,0,0,1-10.25-9.28c-.55-7.19,3.92-10.91,9.49-11.45,7.82-.76,15.73-.64,23.61-.81a14.91,14.91,0,0,1,3.35.69Q141.8,343.53,140,350.08Z" transform="translate(-17.74 -192.59)"/><path class="cls-14" d="M140,372.9c.24,1.24.49,2.49.73,3.73a46.26,46.26,0,0,0-12.37,19.82c-3,9.82,1.84,16.5,12.09,15.67a92.81,92.81,0,0,0,24.37-5c10.05-3.69,19.46-9.08,29.15-13.75l.25,1.86q-4,2.53-8,5.06L166.44,410l-16.61,5.68-1.46.35-1.33.33-4.92.66-1.43.26-5.55.49-2.06,0-8.32-1.53c-4.49-2.83-5.81-7-4.89-12,.47-2.47,1.36-4.87,2-7.3,4.85-6.89,9.65-13.81,14.57-20.65A26.3,26.3,0,0,1,140,372.9Z" transform="translate(-17.74 -192.59)"/><path class="cls-15" d="M233.85,309.15c6.5-1.69,13-3.55,19.5-5a29.16,29.16,0,0,1,16.13.78c5.91,4.32,7.07,8.19,4.48,15.69-3.09,8.93-8.76,16.26-14.8,23.34q-2.25,2.64-4.48,5.3l-13.16,12.09c-.25-.71-.49-1.43-.73-2.14,4.75-5.07,9.71-10,14.2-15.27,5.1-6,9.68-12.51,11.7-20.32,2.17-8.38-1.93-13.94-10.61-14.46a52,52,0,0,0-23.75,4.36l-2.92-2.33Z" transform="translate(-17.74 -192.59)"/><path class="cls-11" d="M254,376.48c.06-.86.13-1.72.19-2.58q1-8.72,2-17.44c5.86,1.75,11.47,4.1,15,9.29,3.28,4.77,1.17,11.2-4.16,14.19C262.79,382.32,256.08,380.55,254,376.48Z" transform="translate(-17.74 -192.59)"/><path class="cls-14" d="M216.23,462.79c-3.45.8-5.79,2.41-6.16,6.41-.27,2.86-2,3.32-3.93,1.15s-3.91-3.17-7-2.55-3.83-.72-2.48-3.86a26,26,0,0,0,1.1-4.44c-.05-.23-.09-.46-.15-.68L196.36,454a28.25,28.25,0,0,0,5.22-.25,22.24,22.24,0,0,0,4.42-2c1.09-.53,2.16-1.09,3.24-1.64.51,1.08,1.37,2.13,1.45,3.24a5.58,5.58,0,0,0,3.78,5.28C216.39,459.34,217.77,460.51,216.23,462.79Z" transform="translate(-17.74 -192.59)"/><path class="cls-16" d="M256.18,356.46q-1,8.71-2,17.44c-1.69,0-3.38-.07-5.06,0-4.19.16-5.31-1.48-5.34-5.61,0-1.88-1.95-3.74-3-5.61l.76-1.34,13.16-12.09Z" transform="translate(-17.74 -192.59)"/><path class="cls-8" d="M121.92,396.91c-.69,2.43-1.58,4.83-2,7.3-.92,5,.4,9.14,4.89,12-.31.46-.52,1.17-1,1.35-8.58,3.52-17.17-2.4-16.63-11.44.28-4.86,4.82-8.69,10.92-9.16C119.37,396.83,120.65,396.91,121.92,396.91Z" transform="translate(-17.74 -192.59)"/><path class="cls-16" d="M166.44,410l19.75-9.65c-2.1,7.25.27,13.33,5,18.79l-2.12.13-1.29-.16Z" transform="translate(-17.74 -192.59)"/><path class="cls-17" d="M166.44,410l21.31,9.11c-3.73,0-7.48.21-11.2.05-7.75-.34-15.5-.87-23.24-1.31-1.58-.09-3.48.39-3.48-2.17Z" transform="translate(-17.74 -192.59)"/><path class="cls-18" d="M303.79,357.55l5,5.5-4.88,5.58-5.15-2.58c-.08-1.68-.18-3.87-.27-5.75C300.3,359.34,302,358.44,303.79,357.55Z" transform="translate(-17.74 -192.59)"/><path class="cls-17" d="M189,419.23l2.12-.13a5.31,5.31,0,0,0,.68.1l7,.7v1.39c-2.81-.25-5.63-.45-8.42-.81C189.91,420.41,189.49,419.66,189,419.23Z" transform="translate(-17.74 -192.59)"/><path class="cls-19" d="M133.08,417.71l2.06,0Z" transform="translate(-17.74 -192.59)"/><path class="cls-19" d="M140.69,417.24l1.43-.26Z" transform="translate(-17.74 -192.59)"/><path class="cls-17" d="M147,416.32l1.33-.33c-.21.44-.43.89-.65,1.33Z" transform="translate(-17.74 -192.59)"/><path class="cls-20" d="M449.4,493.09c-14.13,3.61-27.32,1.25-39.64-6.33-2.17-1.32-4.23-2.82-6.33-4.24-5.39-5.62-10.19-11.66-13.58-18.72l-.85-3.25c3.69-3.54,8.25-5.07,13.2-5.82a24.88,24.88,0,0,0,6.07-1.51c4-1.68,4.21-5.39.65-7.75-1.35-.9-3-1.42-4.17-2.51s-2.81-2.87-2.6-4a5.45,5.45,0,0,1,3.51-3.63,81.62,81.62,0,0,1,13.08-1c5.33-.05,10.66.46,16,.38,2.37,0,4.74-1.16,5.13-3.92s-1.64-4.43-3.91-5.58c-2.69-1.37-5.46-2.62-8.2-3.9-3.8-1.78-7.67-3.41-11.35-5.39a4.12,4.12,0,0,1-1.94-3.22c.14-1,1.6-2.18,2.74-2.63,1.34-.53,3.06-.07,4.44-.55,1.83-.63,4.48-1.43,4.93-2.77s-1.15-3.79-2.53-5c-2.08-1.77-4.75-2.85-7.17-4.23,11.4-5.42,23.14-5.37,35.07-2.15,1.91.51,3.81,1.09,5.71,1.64,7.69,4.23,15,9,20.23,16.21l4.06,5.61,5,14.34c-5.26-.88-10.5-2-15.8-2.56-2.63-.3-5.61.75-6,3.62-.25,1.88,1.14,4.22,2.34,6,1.36,2,3.5,3.4,5,5.31a7.18,7.18,0,0,1,.78,8.47c-1.54,2.69-4.2,3.4-7,2.9-3.41-.61-6.73-1.71-10.08-2.66-8.67-2.46-17.46-4.11-26.51-3-4.35.55-6.84,2.8-7.28,5.9s1.71,6.34,5.55,8c3.09,1.34,6.51,2.05,9.4,3.71a133.09,133.09,0,0,1,15.37,10c3.27,2.57,2.74,6.13-.7,7.5S448.28,490.09,449.4,493.09Z" transform="translate(-17.74 -192.59)"/><path class="cls-21" d="M449.4,493.09c-1.12-3-.9-5.27,2.62-6.69s4-4.93.7-7.5a133.09,133.09,0,0,0-15.37-10c-2.89-1.66-6.31-2.37-9.4-3.71-3.84-1.67-6-4.93-5.55-8s2.93-5.35,7.28-5.9c9.05-1.14,17.84.51,26.51,3,3.35.95,6.67,2.05,10.08,2.66,2.75.5,5.41-.21,7-2.9a7.18,7.18,0,0,0-.78-8.47c-1.49-1.91-3.63-3.33-5-5.31-1.2-1.76-2.59-4.1-2.34-6,.38-2.87,3.36-3.92,6-3.62,5.3.6,10.54,1.68,15.8,2.56.17.22.33.45.49.67.13.48.26,1,.38,1.44.1.91.21,1.83.31,2.75l.36,2.84v6.23l-.27,2.14c-.14,1.15-.27,2.29-.41,3.44-.12.48-.25,1-.37,1.44-.12.68-.24,1.36-.35,2a66.49,66.49,0,0,1-11.29,21.57c-6.25,6.2-13.14,11.46-21.63,14.26C452.59,492.47,451,492.72,449.4,493.09Z" transform="translate(-17.74 -192.59)"/><path class="cls-21" d="M416.87,397.49c2.42,1.38,5.09,2.46,7.17,4.23,1.38,1.17,2.95,3.68,2.53,5s-3.1,2.14-4.93,2.77c-1.38.48-3.1,0-4.44.55-1.14.45-2.6,1.62-2.74,2.63a4.12,4.12,0,0,0,1.94,3.22c3.68,2,7.55,3.61,11.35,5.39,2.74,1.28,5.51,2.53,8.2,3.9,2.27,1.15,4.32,2.71,3.91,5.58s-2.76,3.88-5.13,3.92c-5.33.08-10.66-.43-16-.38a81.62,81.62,0,0,0-13.08,1,5.45,5.45,0,0,0-3.51,3.63c-.21,1.18,1.42,2.94,2.6,4s2.82,1.61,4.17,2.51c3.56,2.36,3.3,6.07-.65,7.75a24.88,24.88,0,0,1-6.07,1.51c-4.95.75-9.51,2.28-13.2,5.82-4.1-10.2-3.84-20.55-1.05-31,.35-1.34.72-2.68,1.08-4a58.77,58.77,0,0,1,19.76-24.36Z" transform="translate(-17.74 -192.59)"/><path class="cls-22" d="M436.08,336.91c13.83-.22,27.65-.52,41.48-.63,4.75,0,9.51.31,14.24.72,5.94.52,9.45,5.06,9.28,11.66-.12,4.92-4.47,8.9-10.38,9.12-2.76.11-5.54-.54-8.31-.59-5.47-.11-10.95-.22-16.41,0-13.55.56-27.09,1.31-40.64,2A56.81,56.81,0,0,0,436.08,336.91Z" transform="translate(-17.74 -192.59)"/><path class="cls-22" d="M408.79,401.19A58.77,58.77,0,0,0,389,425.55a135.46,135.46,0,0,0-34.95,12.81,26.58,26.58,0,0,1-6.8,2.5,9.68,9.68,0,0,1-10.41-5.22c-2-4-1.55-9.34,1.92-11.74a104.32,104.32,0,0,1,15.42-8.72c15.52-7.21,32.17-10.7,48.86-13.89A32.06,32.06,0,0,1,408.79,401.19Z" transform="translate(-17.74 -192.59)"/><path class="cls-22" d="M389.85,463.8c3.39,7.06,8.19,13.1,13.58,18.72-12.23,2.29-24.4,4.88-35.87,9.86-5.42,2.35-10.69,5.05-16,7.6-5,2.4-9.2,1.86-12.83-1.7-4.56-4.48-4.07-12.42,1.61-15.58a170.37,170.37,0,0,1,22.86-10.92C371.85,468.52,380.94,466.41,389.85,463.8Z" transform="translate(-17.74 -192.59)"/><path class="cls-22" d="M435.15,297.07l11.93-20.85c11.64,0,23.29,0,34.93.1a104.55,104.55,0,0,1,10.75.75c3.6.4,7.81,4.41,8.28,7.58.82,5.54-1.19,10.23-5.7,11.79-2.5.87-5.38.74-8.09.93-1.27.09-2.55-.16-3.83-.16-11.53,0-23.05-.06-34.58,0-3.36,0-6.71.53-10.06.62A15.83,15.83,0,0,1,435.15,297.07Z" transform="translate(-17.74 -192.59)"/><path class="cls-23" d="M436.08,336.91a56.81,56.81,0,0,1-10.74,22.26L418.89,365l-.62-.53c.32-1.5.65-3,1-4.5,1.43-7.89,1.1-15.51-3.41-22.51l-6.83-9,20.68-24c4,4.39,5.46,9.95,6.1,15.52S436,331.28,436.08,336.91Z" transform="translate(-17.74 -192.59)"/><path class="cls-22" d="M481.94,418.8l-4.06-5.61c-5.26-7.24-12.54-12-20.23-16.21a16.72,16.72,0,0,1,3.63-.74c9.53.16,19.05.44,28.58.66,6.21.15,11.93,5.61,11.34,11.17s-4.19,9.47-9.77,9.77C488.25,418,485.1,418.47,481.94,418.8Z" transform="translate(-17.74 -192.59)"/><path class="cls-7" d="M475.75,477.7A66.49,66.49,0,0,0,487,456.13c2,.5,4,1.05,6,1.49,5.49,1.19,8.52,5.68,8,11.94-.37,4.35-5,8.19-10,8.2S480.85,477.72,475.75,477.7Z" transform="translate(-17.74 -192.59)"/><path class="cls-14" d="M335.24,458.72c-3.09-1.74-5.66-.6-8.16,1.91-1.82,1.81-3.48.88-3.5-1.44a7.06,7.06,0,0,0-4.47-7.08c-2.23-1.07-2.11-2.94.22-3.72,3.31-1.1,4.8-3.19,5.3-6.52.38-2.53,2.17-2.82,3.63-.95,2.07,2.66,4.25,3.89,7.76,3,2.27-.55,3.58,1.05,2.16,3.1-2,2.92-2.28,5.52-.5,8.64C338.75,457.56,337.77,458.79,335.24,458.72Z" transform="translate(-17.74 -192.59)"/><path class="cls-7" d="M488.44,440.84l-.36-2.84Z" transform="translate(-17.74 -192.59)"/><path class="cls-7" d="M488.17,449.21l.27-2.14Z" transform="translate(-17.74 -192.59)"/><path class="cls-7" d="M487.77,435.25c-.12-.48-.25-1-.38-1.44C487.52,434.29,487.65,434.77,487.77,435.25Z" transform="translate(-17.74 -192.59)"/><path class="cls-7" d="M487.39,454.09c.12-.48.25-1,.37-1.44C487.64,453.13,487.51,453.61,487.39,454.09Z" transform="translate(-17.74 -192.59)"/><path class="cls-24" d="M350.61,324.85l5.17-6.69,1.43-.81c2.88,1.68,5.72,3.43,8.65,5a23.89,23.89,0,0,0,3.67,1.32l1.5,0c.68,1.18,1.09,2.67,2.07,3.46,2.67,2.14,5.57,4,8.38,6q-2.18,4.44-4.36,8.86Z" transform="translate(-17.74 -192.59)"/><path class="cls-17" d="M377.12,342q2.17-4.42,4.36-8.86c1.53.82,3,1.66,4.59,2.46a15.33,15.33,0,0,0,15.31-.06c1-.54,1.54-1.78,2.3-2.7l5.32-4.38,6.83,9c-.75.75-1.41,2-2.27,2.16-11.15,2.21-22.33,4.26-33.5,6.34a10.79,10.79,0,0,1-1.4.05Z" transform="translate(-17.74 -192.59)"/><path class="cls-2" d="M261.75,440l1.51-2Z" transform="translate(-17.74 -192.59)"/><path class="cls-25" d="M393.93,249.07A25.16,25.16,0,0,1,419.68,224a25.5,25.5,0,0,1,25.19,25.5c-.17,13.72-11.62,25.15-25.21,25.16A25.36,25.36,0,0,1,393.93,249.07Zm43,.26a17.21,17.21,0,0,0-17.28-17.66A17.47,17.47,0,0,0,401.59,249a17.84,17.84,0,0,0,17.54,18A17.49,17.49,0,0,0,436.93,249.33Z" transform="translate(-17.74 -192.59)"/><path class="cls-23" d="M350,290.5c-13.24-6.36-25.1-2.7-37.23,5.91.59-2.13.83-3.27,1.22-4.35,6.35-17.8,23.88-30.47,42.9-31,2.44-.07,4.89,0,7.34,0a3.08,3.08,0,0,1-.05,1Q357.13,276.3,350,290.5Z" transform="translate(-17.74 -192.59)"/><path class="cls-26" d="M371,323.73l-1.5,0c.64-1.32,1.37-2.6,1.9-4,.83-2.17,1.53-4.4,2.28-6.6a21.07,21.07,0,0,0,2.79-3.37q7.63-14.25,15.09-28.59c1.34-2.57,3.34-3.84,6.21-3.5a5.05,5.05,0,0,1,4.72,4.81,7.94,7.94,0,0,1-1.69,5c-6.3,8-12.81,15.88-19.19,23.84-1.22,1.52-2.19,3.23-3.28,4.85Q374.7,319.94,371,323.73Z" transform="translate(-17.74 -192.59)"/><path class="cls-14" d="M371,323.73q3.68-3.8,7.33-7.6l25.32,16.72c-.76.92-1.33,2.16-2.3,2.7a15.33,15.33,0,0,1-15.31.06c-1.54-.8-3.06-1.64-4.59-2.46-2.81-2-5.71-3.82-8.38-6C372.12,326.4,371.71,324.91,371,323.73Z" transform="translate(-17.74 -192.59)"/><path class="cls-14" d="M373.71,313.13c-.75,2.2-1.45,4.43-2.28,6.6-.53,1.37-1.26,2.65-1.9,4a23.89,23.89,0,0,1-3.67-1.32c-2.93-1.6-5.77-3.35-8.65-5-6.79-4.43-11.3-10.09-10.19-18.77l1.58-1.75Z" transform="translate(-17.74 -192.59)"/><path class="cls-7" d="M347,298.58c-1.11,8.68,3.4,14.34,10.19,18.77l-1.43.81a42.83,42.83,0,0,0-4.49,1.63,11,11,0,0,1-14.54-4.36c-2.39-4.22-.65-10.47,3.86-13.38C342.65,300.73,344.88,299.72,347,298.58Z" transform="translate(-17.74 -192.59)"/><path class="cls-13" d="M229.41,311.18l2.92,2.32,2.61,2.54,2.92,1.62c.67.91,1.28,1.89,2,2.73a60.58,60.58,0,0,1,11.62,18.17c-3.15,4.11-6,8.47-9.52,12.26a172.87,172.87,0,0,1-36.68,30.08c-6.84-2.62-8.33-6-5-12.58,4.68-9.39,11.64-17,19.59-23.72,3.24-2.74,6.45-5.4,6.28-10.22-.12-3.26-2.39-6.28-5.6-6.37-2.84-.09-5.69.59-8.54.94a5.61,5.61,0,0,0-.65.23c-2.93.83-6.24,2.1-8.23-1.12-1.74-2.83-1.27-6,1.07-8.68,3.05-3.48,6.11-7,9.11-10.49.87-1,1.56-2.22,2.33-3.34l.73-.29,1.34.3Z" transform="translate(-17.74 -192.59)"/><path class="cls-27" d="M205.31,380.9A172.87,172.87,0,0,0,242,350.82c3.5-3.79,6.37-8.15,9.52-12.26,1.9-4,4.28-7.93,5.57-12.16a6.74,6.74,0,0,0-5.78-9c-4.39-.58-9,.14-13.44.29L234.94,316c.46-.62.79-1.61,1.37-1.79,6.92-2.15,13.94-4,21.26-2.87,6.12,1,8.67,5.12,7.29,11.14-1.61,7-5.66,12.68-10,18.18-10.25,13.09-22.79,23.82-36,33.75-18.53,13.89-38.34,25.6-60.55,32.63A68.72,68.72,0,0,1,139.82,410c-8.49.25-12.47-5.28-9.32-13.05,2.32-5.71,6.08-10.86,9.32-16.19.39-.65,1.51-.85,2.29-1.26l.78,3.43c-3.07,3.92-5.28,8.18-5.38,13.29,0,4.23,1.53,7.09,5.45,7.51,4.67.5,9.46-.2,14.2-.38,4.86-1.45,9.88-2.52,14.54-4.45,6.19-2.55,12.09-5.78,18.12-8.72Z" transform="translate(-17.74 -192.59)"/><path class="cls-2" d="M216.36,305.26l-.73.29-14.73-3.46A25.36,25.36,0,0,1,216.36,305.26Z" transform="translate(-17.74 -192.59)"/><path class="cls-2" d="M229.41,311.18l-11.71-5.62c2.66.38,5.36.6,8,1.19,2.77.62,5.46,1.58,8.18,2.4Z" transform="translate(-17.74 -192.59)"/><path class="cls-28" d="M142.11,379.51c-.78.41-1.9.61-2.29,1.26-3.24,5.33-7,10.48-9.32,16.19-3.15,7.77.83,13.3,9.32,13.05a68.72,68.72,0,0,0,18.49-2.93c22.21-7,42-18.74,60.55-32.63,13.24-9.93,25.78-20.66,36-33.75,4.31-5.5,8.36-11.19,10-18.18,1.38-6-1.17-10.17-7.29-11.14-7.32-1.17-14.34.72-21.26,2.87-.58.18-.91,1.17-1.37,1.79l-2.61-2.54a52.12,52.12,0,0,1,23.75-4.35c8.68.52,12.78,6.08,10.61,14.46-2,7.81-6.6,14.29-11.7,20.32-4.49,5.3-9.45,10.2-14.2,15.27l-4.06,3.61-1.5,1.35-3.58,3.19-2.46,2.14-.25.1-3.23,2.71-1.15.75-.7.54-1.28.89-1.34.9-1.48,1.16-4.55,3.4-.27.11-2.37,1.86c-5,3.06-10.08,6.08-15,9.23-.61.39-.76,1.51-1.12,2.3h0l-2.46-.06c-9.69,4.67-19.1,10.06-29.15,13.75a92.81,92.81,0,0,1-24.37,5c-10.25.83-15.12-5.85-12.09-15.67a46.26,46.26,0,0,1,12.37-19.82C141.17,377.59,141.64,378.55,142.11,379.51Z" transform="translate(-17.74 -192.59)"/><path class="cls-29" d="M196.41,393.44c.36-.79.51-1.91,1.12-2.3,5-3.15,10-6.17,15.05-9.23.11.5.23,1,.35,1.49Z" transform="translate(-17.74 -192.59)"/><path class="cls-29" d="M236.73,362.81l4.06-3.61c.24.71.48,1.43.73,2.14l-.76,1.34-3.42,2.24Z" transform="translate(-17.74 -192.59)"/><path class="cls-30" d="M198.83,419.9l-7-.7,8.4,0Z" transform="translate(-17.74 -192.59)"/><path class="cls-29" d="M231.65,367.35l3.58-3.19c0,.82,0,1.63.05,2.45l-3.57,3.11Z" transform="translate(-17.74 -192.59)"/><path class="cls-15" d="M215.2,379.94l4.56-3.4,1.37,1.14-4.71,3.46Z" transform="translate(-17.74 -192.59)"/><path class="cls-15" d="M235.28,366.61c0-.82,0-1.63-.05-2.45l1.5-1.35c.2.7.41,1.4.61,2.11Z" transform="translate(-17.74 -192.59)"/><path class="cls-15" d="M225.71,372.29l3.23-2.7c0,.77,0,1.53,0,2.29-.67.53-1.35,1.05-2,1.57Z" transform="translate(-17.74 -192.59)"/><path class="cls-15" d="M212.93,383.4c-.12-.5-.24-1-.35-1.49l2.36-1.86c.07.64.13,1.29.19,1.93Z" transform="translate(-17.74 -192.59)"/><path class="cls-29" d="M193.93,393.39l2.46.06-2.21,1.8C194.1,394.63,194,394,193.93,393.39Z" transform="translate(-17.74 -192.59)"/><path class="cls-15" d="M231.65,367.35l.06,2.37-1.27,1-1.25-1.24Z" transform="translate(-17.74 -192.59)"/><path class="cls-15" d="M221.24,375.38l1.34-.9,1.35,1.11-2.77,2.09C221.19,376.91,221.21,376.14,221.24,375.38Z" transform="translate(-17.74 -192.59)"/><path class="cls-30" d="M207.26,418.25l-2.09.38Z" transform="translate(-17.74 -192.59)"/><path class="cls-15" d="M223.86,373.59l.7-.54.87,1.57-1.47,1C223.92,374.92,223.89,374.26,223.86,373.59Z" transform="translate(-17.74 -192.59)"/><path class="cls-29" d="M225.43,374.62l-.87-1.57,1.15-.75,1.21,1.15Z" transform="translate(-17.74 -192.59)"/><path class="cls-29" d="M221.24,375.38c0,.76-.05,1.53-.08,2.3h0l-1.36-1.14Z" transform="translate(-17.74 -192.59)"/><path class="cls-29" d="M229.19,369.49l1.25,1.24L229,371.88c0-.76,0-1.52,0-2.29Z" transform="translate(-17.74 -192.59)"/><path class="cls-29" d="M215.13,382c-.06-.64-.12-1.29-.19-1.93l.27-.11,1.21,1.2Z" transform="translate(-17.74 -192.59)"/><path class="cls-29" d="M223.86,373.59c0,.67.06,1.33.1,2h0l-1.35-1.11Z" transform="translate(-17.74 -192.59)"/><path class="cls-17" d="M157.16,403.36c-4.74.18-9.53.88-14.2.38-3.92-.42-5.44-3.28-5.45-7.51l13,0Q153.82,399.78,157.16,403.36Z" transform="translate(-17.74 -192.59)"/><path class="cls-30" d="M150.49,396.21l-13,0c.1-5.11,2.31-9.37,5.38-13.29Q146.69,389.59,150.49,396.21Z" transform="translate(-17.74 -192.59)"/><path class="cls-21" d="M436.93,249.33A17.49,17.49,0,0,1,419.13,267a17.84,17.84,0,0,1-17.54-18,17.47,17.47,0,0,1,18.06-17.35A17.21,17.21,0,0,1,436.93,249.33Z" transform="translate(-17.74 -192.59)"/><path class="cls-30" d="M237.86,317.66c4.49-.15,9-.87,13.44-.29a6.74,6.74,0,0,1,5.78,9c-1.29,4.23-3.67,8.12-5.57,12.16a60.58,60.58,0,0,0-11.62-18.17C239.14,319.55,238.53,318.57,237.86,317.66Z" transform="translate(-17.74 -192.59)"/></svg>